HIERARCHY
ROOT Hips
{
	OFFSET 0.000000 0.000000 0.000000
	CHANNELS 6 Xposition Yposition Zposition Zrotation Yrotation Xrotation 
	JOINT LHipJoint
	{
		OFFSET 0.000000 0.000000 0.000000
		CHANNELS 3 Zrotation Yrotation Xrotation
		JOINT LeftUpLeg
		{
			OFFSET 1.363060 -1.794630 0.839290
			CHANNELS 3 Zrotation Yrotation Xrotation
			JOINT LeftLeg
			{
				OFFSET 2.448110 -6.726130 0.000000
				CHANNELS 3 Zrotation Yrotation Xrotation
				JOINT LeftFoot
				{
					OFFSET 2.562200 -7.039590 0.000000
					CHANNELS 3 Zrotation Yrotation Xrotation
					JOINT LeftToeBase
					{
						OFFSET 0.157640 -0.433110 2.322550
						CHANNELS 3 Zrotation Yrotation Xrotation
						End Site
						{
							OFFSET 0.000000 0.000000 0.000000
						}
					}
				}
			}
		}
	}
	JOINT RHipJoint
	{
		OFFSET 0.000000 0.000000 0.000000
		CHANNELS 3 Zrotation Yrotation Xrotation
		JOINT RightUpLeg
		{
			OFFSET -1.305520 -1.794630 0.839290
			CHANNELS 3 Zrotation Yrotation Xrotation
			JOINT RightLeg
			{
				OFFSET -2.542530 -6.985550 0.000000
				CHANNELS 3 Zrotation Yrotation Xrotation
				JOINT RightFoot
				{
					OFFSET -2.568260 -7.056230 0.000000
					CHANNELS 3 Zrotation Yrotation Xrotation
					JOINT RightToeBase
					{
						OFFSET -0.164730 -0.452590 2.363150
						CHANNELS 3 Zrotation Yrotation Xrotation
						End Site
						{
							OFFSET 0.000000 0.000000 0.000000
						}
					}
				}
			}
		}
	}
	JOINT LowerBack
	{
		OFFSET 0.000000 0.000000 0.000000
		CHANNELS 3 Zrotation Yrotation Xrotation
		JOINT Spine
		{
			OFFSET 0.028270 2.035590 -0.193380
			CHANNELS 3 Zrotation Yrotation Xrotation
			JOINT Spine1
			{
				OFFSET 0.056720 2.048850 -0.042750
				CHANNELS 3 Zrotation Yrotation Xrotation
				JOINT Neck
				{
					OFFSET 0.000000 0.000000 0.000000
					CHANNELS 3 Zrotation Yrotation Xrotation
					JOINT Neck1
					{
						OFFSET -0.054170 1.746240 0.172020
						CHANNELS 3 Zrotation Yrotation Xrotation
						JOINT Head
						{
							OFFSET 0.104070 1.761360 -0.123970
							CHANNELS 3 Zrotation Yrotation Xrotation
							End Site
							{
								OFFSET 0.000000 0.000000 0.000000
							}
						}
					}
				}
				JOINT LeftShoulder
				{
					OFFSET 0.000000 0.000000 0.000000
					CHANNELS 3 Zrotation Yrotation Xrotation
					JOINT LeftArm
					{
						OFFSET 3.362410 1.200890 -0.311210
						CHANNELS 3 Zrotation Yrotation Xrotation
						JOINT LeftForeArm
						{
							OFFSET 4.983000 -0.000000 -0.000000
							CHANNELS 3 Zrotation Yrotation Xrotation
							JOINT LeftHand
							{
								OFFSET 3.483560 -0.000000 -0.000000
								CHANNELS 3 Zrotation Yrotation Xrotation
								JOINT LeftFingerBase
								{
									OFFSET 0.000000 0.000000 0.000000
									CHANNELS 3 Zrotation Yrotation Xrotation
									JOINT LeftHandIndex1
									{
										OFFSET 0.715260 -0.000000 -0.000000
										CHANNELS 3 Zrotation Yrotation Xrotation
										End Site
										{
											OFFSET 0.000000 0.000000 0.000000
										}
									}
								}
								JOINT LThumb
								{
									OFFSET 0.000000 0.000000 0.000000
									CHANNELS 3 Zrotation Yrotation Xrotation
									End Site
									{
										OFFSET 0.000000 0.000000 0.000000
									}
								}
							}
						}
					}
				}
				JOINT RightShoulder
				{
					OFFSET 0.000000 0.000000 0.000000
					CHANNELS 3 Zrotation Yrotation Xrotation
					JOINT RightArm
					{
						OFFSET -3.136600 1.374050 -0.404650
						CHANNELS 3 Zrotation Yrotation Xrotation
						JOINT RightForeArm
						{
							OFFSET -5.241900 -0.000000 -0.000000
							CHANNELS 3 Zrotation Yrotation Xrotation
							JOINT RightHand
							{
								OFFSET -3.444170 -0.000000 -0.000000
								CHANNELS 3 Zrotation Yrotation Xrotation
								JOINT RightFingerBase
								{
									OFFSET 0.000000 0.000000 0.000000
									CHANNELS 3 Zrotation Yrotation Xrotation
									JOINT RightHandIndex1
									{
										OFFSET -0.622530 -0.000000 -0.000000
										CHANNELS 3 Zrotation Yrotation Xrotation
										End Site
										{
											OFFSET 0.000000 0.000000 0.000000
										}
									}
								}
								JOINT RThumb
								{
									OFFSET 0.000000 0.000000 0.000000
									CHANNELS 3 Zrotation Yrotation Xrotation
									End Site
									{
										OFFSET 0.000000 0.000000 0.000000
									}
								}
							}
						}
					}
				}
			}
		}
	}
}
MOTION
Frames: 12
Frame Time: 0.008333
1.049489 17.327509 0.808132 0.815278 67.361963 31.148984 -7.627312 -1.837660 0.158985 -10.891799 4.886905 -52.481048 -3.835947 -1.316361 5.622133 1.268743 6.789441 -1.135740 1.481400 -0.000001 -46.186400 11.574079 -1.127447 -2.940182 6.397796 -4.093413 -20.964804 1.325177 -2.532719 34.048327 -0.077082 1.806264 3.720624 0.226200 -0.000000 -64.387100 -5.144795 3.526182 5.575898 -1.289259 4.004414 -2.068162 -2.552146 4.014123 -0.464520 2.045214 -1.528568 -3.815775 0.008846 -0.046769 0.768383 0.000000 0.000000 0.000000 0.256811 22.675613 1.880789 -65.125907 45.173542 18.252493 -0.160411 -88.761417 0.005671 -6.045500 -0.086459 0.007515 0.062694 0.058249 0.000000 0.000000 0.000000 0.000000 0.000000 0.000000 0.000000 -9.621093 5.679838 -3.203461 69.956535 31.182381 25.368745 179.713432 81.884921 179.994461 -1.120951 7.992663 -0.085037 0.026947 -0.567979 -0.000000 0.000000 0.000000 0.000000 0.000000 0.000000 0.000000 
1.273478 17.303749 0.833827 0.364325 66.802779 30.677603 -7.638414 -1.834741 0.088161 -11.180820 5.486272 -52.564471 -3.915585 -1.308711 5.549980 1.191640 6.424476 -0.971289 1.443699 0.000000 -47.262500 11.645162 -1.135820 -2.899230 6.010657 -4.034041 -21.186952 1.199638 -2.652447 35.747256 -0.198809 1.032681 3.298258 0.081600 0.000000 -63.713600 -5.308030 3.541608 5.545441 -1.308692 4.030630 -2.064113 -2.505000 4.041114 -0.398480 1.945081 -1.468057 -3.932638 0.019728 -0.043897 0.735735 0.000000 0.000000 0.000000 0.222402 23.095908 1.968310 -66.378211 44.466818 16.607803 -0.118173 -89.338546 0.006304 -5.739690 -0.067150 0.006658 0.059805 0.066557 0.000000 0.000000 0.000000 0.000000 0.000000 0.000000 0.000000 -9.865065 5.799551 -3.282411 70.454948 30.864261 25.533650 179.726276 82.056534 179.995591 -0.936120 7.893706 -0.070047 0.021967 -0.563722 -0.000000 0.000000 0.000000 0.000000 0.000000 0.000000 0.000000 
1.495456 17.268321 0.859673 0.050168 66.313071 30.358180 -7.646770 -1.813527 0.038309 -11.397023 5.881729 -52.732751 -3.962290 -1.252004 5.926267 1.154525 6.235146 -0.892207 1.423300 -0.000000 -48.045600 11.724624 -1.129111 -2.873105 5.605424 -4.029092 -21.558510 1.074858 -2.789236 37.713115 -0.318465 0.284751 2.661771 -0.048800 -0.000000 -62.971400 -5.470492 3.531210 5.514350 -1.327740 4.030233 -2.060165 -2.459802 4.041008 -0.336140 1.865662 -1.441555 -4.058938 0.025822 -0.041179 0.700194 0.000000 0.000000 0.000000 0.177770 23.435036 2.058402 -67.639966 43.641955 14.987370 -0.079086 -89.875896 0.006843 -5.372519 -0.056315 0.006210 0.056074 0.075591 0.000000 0.000000 0.000000 0.000000 0.000000 0.000000 0.000000 -10.067131 5.879671 -3.348847 70.982253 30.520741 25.683945 179.738591 82.262724 179.996676 -0.758645 7.800120 -0.055855 0.017228 -0.559597 -0.000000 0.000000 0.000000 0.000000 0.000000 0.000000 0.000000 
1.715126 17.221368 0.886045 -0.104705 65.901699 30.216426 -7.650232 -1.773661 0.015271 -11.527041 6.034170 -52.969168 -3.972460 -1.150567 6.708816 1.154891 6.226133 -0.852593 1.428400 -0.000001 -48.583800 11.818566 -1.106298 -2.864946 5.164304 -4.096871 -22.076160 0.951112 -2.944393 39.915535 -0.427238 -0.375571 1.878450 -0.147700 -0.000000 -62.233301 -5.645544 3.493432 5.481631 -1.349806 4.001999 -2.056940 -2.418668 4.012630 -0.279208 1.814547 -1.448434 -4.195247 0.024906 -0.038751 0.661441 0.000000 0.000000 0.000000 0.127699 23.691368 2.148710 -68.879026 42.695951 13.423137 179.957259 -89.613686 -179.992751 -4.945224 -0.059684 0.006270 0.051568 0.085422 0.000000 0.000000 0.000000 0.000000 0.000000 0.000000 0.000000 -10.209531 5.921970 -3.398653 71.518155 30.141799 25.810983 179.749271 82.481598 179.997719 -0.587647 7.717488 -0.042563 0.012707 -0.555923 -0.000000 0.000000 0.000000 0.000000 0.000000 0.000000 0.000000 
1.932667 17.162676 0.912177 -0.180720 65.572670 30.180476 -7.655297 -1.718349 0.007648 -11.601763 6.023415 -53.373324 -3.958859 -0.986695 8.002214 1.168334 6.246895 -0.882127 1.429200 0.000000 -48.831800 11.916198 -1.076520 -2.866307 4.730923 -4.210383 -22.728176 0.827313 -3.113901 42.312817 -0.520826 -0.929755 1.013305 -0.212300 -0.000000 -61.558000 -5.804811 3.433850 5.447015 -1.369240 3.950826 -2.054872 -2.383413 3.960762 -0.229345 1.789735 -1.483573 -4.343295 0.016083 -0.036656 0.619096 0.000000 0.000000 0.000000 0.059276 23.877467 2.234530 -70.058076 41.629372 11.955158 179.991496 -89.113461 -179.992511 -4.465594 -0.081097 0.007036 0.046395 0.096109 0.000000 0.000000 0.000000 0.000000 0.000000 0.000000 0.000000 -10.294340 5.933999 -3.431066 72.042387 29.712260 25.901857 179.757593 82.688294 179.998715 -0.422332 7.651840 -0.030069 0.008296 -0.552965 -0.000000 0.000000 0.000000 0.000000 0.000000 0.000000 0.000000 
2.147619 17.092478 0.938786 -0.134799 65.327043 30.289743 -7.656298 -1.648068 0.012969 -11.644049 5.839466 -53.937120 -3.921274 -0.765135 9.769822 1.189084 6.278587 -0.956133 1.425500 -0.000000 -48.859300 12.024726 -1.037721 -2.878639 4.278979 -4.385167 -23.504438 0.702041 -3.298405 44.870405 -0.593721 -1.343603 0.112335 -0.240799 -0.000000 -60.995800 -5.972294 3.351237 5.414292 -1.391763 3.876247 -2.054084 -2.357428 3.885193 -0.189520 1.801861 -1.540737 -4.503120 -0.003451 -0.035080 0.572877 0.000000 0.000000 0.000000 -0.021606 23.995745 2.314733 -71.143818 40.438397 10.616036 -179.975827 -88.607307 -179.992464 -3.947776 -0.119805 0.008007 0.040809 0.107602 0.000000 0.000000 0.000000 0.000000 0.000000 0.000000 0.000000 -10.299249 5.924030 -3.442909 72.535960 29.220357 25.935990 179.762834 82.860680 179.999645 -0.264049 7.606432 -0.018273 0.003950 -0.551070 -0.000000 0.000000 0.000000 0.000000 0.000000 0.000000 0.000000 
2.359773 17.010935 0.965961 0.018881 65.161200 30.526518 -7.652719 -1.566577 0.018763 -11.694559 5.537443 -54.702446 -3.865462 -0.480595 12.042108 1.202589 6.237479 -1.097422 1.399000 0.000000 -48.670300 12.141933 -0.992645 -2.897957 3.815489 -4.610001 -24.387407 0.573136 -3.495715 47.550384 -0.644638 -1.615182 -0.791723 -0.239600 0.000000 -60.566000 -6.148685 3.249117 5.389666 -1.418048 3.782002 -2.054297 -2.343897 3.789890 -0.163413 1.854639 -1.611368 -4.674256 -0.035595 -0.034162 0.522756 0.000000 0.000000 0.000000 -0.120806 24.053211 2.387013 -72.103722 39.122217 9.437863 -179.944166 -88.080311 -179.992616 -3.410509 -0.170908 0.008881 0.035071 0.119798 0.000000 0.000000 0.000000 0.000000 0.000000 0.000000 0.000000 -10.215198 5.903395 -3.433290 72.985096 28.652612 25.889501 179.764727 82.980381 -179.999519 -0.115367 7.583492 -0.007375 -0.000406 -0.550509 -0.000000 0.000000 0.000000 0.000000 0.000000 0.000000 0.000000 
2.569011 16.918262 0.993465 0.234763 65.064847 30.840700 -7.647655 -1.481543 0.009404 -11.782789 5.194432 -55.710595 -3.794446 -0.126907 14.856048 1.195743 6.043029 -1.354146 1.329200 -0.000000 -48.183400 12.260878 -0.945474 -2.919736 3.364645 -4.859250 -25.352089 0.437828 -3.701930 50.316129 -0.675646 -1.763898 -1.680880 -0.218500 0.000000 -60.256700 -6.321389 3.134266 5.382340 -1.445947 3.674715 -2.054653 -2.345461 3.681722 -0.155355 1.946332 -1.684953 -4.854882 -0.081512 -0.034018 0.469092 0.000000 0.000000 0.000000 -0.252717 24.057235 2.448799 -72.910795 37.680601 8.446563 -179.913085 -87.522156 -179.992958 -2.873388 -0.225957 0.009356 0.029388 0.132549 0.000000 0.000000 0.000000 0.000000 0.000000 0.000000 0.000000 -10.042834 5.885707 -3.402814 73.381521 27.995935 25.736984 179.763427 83.035207 -179.998819 0.019651 7.583161 0.002524 -0.004835 -0.551440 -0.000000 0.000000 0.000000 0.000000 0.000000 0.000000 0.000000 
2.775084 16.814970 1.021234 0.485344 65.024358 31.196829 -7.642900 -1.402195 -0.026216 -11.916253 4.857990 -56.953194 -3.703620 0.291411 18.186799 1.166459 5.684043 -1.763149 1.211300 0.000000 -47.343000 12.377635 -0.897187 -2.943243 2.938239 -5.112547 -26.371801 0.293545 -3.913968 53.136098 -0.690302 -1.815498 -2.552766 -0.186000 0.000000 -60.031700 -6.484859 3.013397 5.403176 -1.474934 3.561050 -2.054272 -2.364667 3.567701 -0.171105 2.074022 -1.750147 -5.040431 -0.142358 -0.034809 0.412925 0.000000 0.000000 0.000000 -0.432644 24.006500 2.498375 -73.545507 36.114926 7.653847 -179.882244 -86.928500 -179.993463 -2.354487 -0.274830 0.009034 0.023887 0.145674 0.000000 0.000000 0.000000 0.000000 0.000000 0.000000 0.000000 -9.783110 5.885135 -3.351975 73.725290 27.237202 25.451747 179.759547 83.023542 -179.998305 0.135579 7.603574 0.011126 -0.009365 -0.553929 -0.000000 0.000000 0.000000 0.000000 0.000000 0.000000 0.000000 
2.977321 16.702095 1.050182 0.816682 65.024997 31.623554 -7.632019 -1.333736 -0.094747 -12.108450 4.526793 -58.350726 -3.585894 0.753205 21.915404 1.124545 5.230086 -2.323174 1.061500 -0.000000 -46.248300 12.499590 -0.842494 -2.972946 2.503233 -5.373262 -27.420323 0.138771 -4.132972 55.984975 -0.691554 -1.787949 -3.417962 -0.147800 0.000000 -59.841300 -6.666062 2.889059 5.466047 -1.511429 3.444444 -2.051855 -2.404784 3.451811 -0.216821 2.241320 -1.799999 -5.223148 -0.220345 -0.036813 0.355924 0.000000 0.000000 0.000000 -0.659024 23.884689 2.536098 -73.998371 34.423090 7.057201 -179.851602 -86.306179 -179.994093 -1.869619 -0.301918 0.008011 0.018654 0.158884 0.000000 0.000000 0.000000 0.000000 0.000000 0.000000 0.000000 -9.421324 5.909905 -3.278794 74.021955 26.370384 25.011427 179.754069 82.957217 -179.998051 0.222276 7.641133 0.017732 -0.013844 -0.557972 -0.000000 0.000000 0.000000 0.000000 0.000000 0.000000 0.000000 
3.175656 16.580760 1.079627 1.151272 65.048224 32.037849 -7.621883 -1.288418 -0.203729 -12.333263 4.253967 -59.872277 -3.437268 1.246737 25.986221 1.075465 4.702550 -3.088929 0.882701 -0.000000 -44.776600 12.616093 -0.783960 -3.009340 2.096898 -5.602948 -28.466475 -0.028607 -4.353646 58.835441 -0.686417 -1.730662 -4.287358 -0.110800 -0.000000 -59.619000 -6.835564 2.771882 5.582672 -1.549757 3.334550 -2.046445 -2.466370 3.343899 -0.299156 2.433127 -1.822009 -5.393248 -0.315172 -0.040181 0.300658 0.000000 0.000000 0.000000 -0.960430 23.679737 2.559878 -74.264814 32.609221 6.643206 -179.820931 -85.667058 -179.994817 -1.424201 -0.298983 0.006389 0.013474 0.172019 0.000000 0.000000 0.000000 0.000000 0.000000 0.000000 0.000000 -8.975766 5.973430 -3.184577 74.285014 25.384545 24.399720 179.748765 82.859122 -179.998131 0.271129 7.692921 0.021741 -0.018191 -0.563287 -0.000000 0.000000 0.000000 0.000000 0.000000 0.000000 0.000000 
3.369513 16.452815 1.110095 1.510182 65.080356 32.446314 -7.608535 -1.269188 -0.354701 -12.586305 4.033147 -61.419721 -3.257591 1.745292 30.248921 1.033667 4.189670 -4.062152 0.694400 -0.000000 -43.017600 12.731071 -0.717159 -3.057844 1.699894 -5.798076 -29.486242 -0.209002 -4.576151 61.665542 -0.679337 -1.672758 -5.176026 -0.077200 0.000000 -59.305100 -7.005090 2.665377 5.765195 -1.592885 3.235046 -2.037055 -2.550882 3.247933 -0.424109 2.644568 -1.809751 -5.537937 -0.427981 -0.045200 0.250300 0.000000 0.000000 0.000000 -1.340960 23.362459 2.570234 -74.348534 30.674865 6.383794 -179.790287 -85.034673 -179.995613 -1.018000 -0.255277 0.004470 0.008080 0.184825 0.000000 0.000000 0.000000 0.000000 0.000000 0.000000 0.000000 -8.441545 6.079797 -3.066796 74.530486 24.277537 23.609185 179.745673 82.767311 -179.998646 0.269128 7.756091 0.022055 -0.022123 -0.569518 -0.000000 0.000000 0.000000 0.000000 0.000000 0.000000 0.000000 
